<svg width="70" height="60" viewBox="0 0 70 60" fill="none" xmlns="http://www.w3.org/2000/svg">
<path d="M9.31953 43.8757C14.4666 43.8757 18.6391 39.7032 18.6391 34.5562C18.6391 29.4092 14.4666 25.2367 9.31953 25.2367C4.17249 25.2367 0 29.4092 0 34.5562C0 39.7032 4.17249 43.8757 9.31953 43.8757Z" fill="black"/>
<path d="M34.1716 43.8757C39.3186 43.8757 43.4911 39.7032 43.4911 34.5562C43.4911 29.4092 39.3186 25.2367 34.1716 25.2367C29.0246 25.2367 24.8521 29.4092 24.8521 34.5562C24.8521 39.7032 29.0246 43.8757 34.1716 43.8757Z" fill="black"/>
<path d="M9.11243 40.9763C12.5438 40.9763 15.3254 38.1947 15.3254 34.7633C15.3254 31.332 12.5438 28.5503 9.11243 28.5503C5.68108 28.5503 2.89941 31.332 2.89941 34.7633C2.89941 38.1947 5.68108 40.9763 9.11243 40.9763Z" fill="#A01818"/>
<path d="M33.9645 40.9763C37.3959 40.9763 40.1775 38.1947 40.1775 34.7633C40.1775 31.332 37.3959 28.5503 33.9645 28.5503C30.5331 28.5503 27.7515 31.332 27.7515 34.7633C27.7515 38.1947 30.5331 40.9763 33.9645 40.9763Z" fill="#DBA61C"/>
<path d="M20.7101 23.1657H16.568V43.8757H20.7101V23.1657Z" fill="black"/>
<path d="M41.4201 16.1243H45.5621V43.8757H41.4201V16.1243Z" fill="black"/>
<path d="M66.2175 41.364C64.8491 42.6604 63.0954 43.5299 61.191 43.8563C59.2867 44.1826 57.3226 43.9502 55.5615 43.1901C53.8004 42.43 52.3263 41.1785 51.3365 39.6031C50.3468 38.0276 49.8885 36.2034 50.023 34.3744C50.1575 32.5455 50.8784 30.799 52.0893 29.3689C53.3001 27.9387 54.9431 26.8929 56.7985 26.3716C58.6538 25.8502 60.633 25.8781 62.4711 26.4515C64.3093 27.0249 65.9188 28.1164 67.0842 29.5801L64.6378 31.3284C63.8483 30.3368 62.758 29.5974 61.5128 29.2089C60.2675 28.8205 58.9268 28.8016 57.6699 29.1548C56.413 29.508 55.3 30.2164 54.4797 31.1853C53.6594 32.1541 53.171 33.3372 53.0799 34.5762C52.9888 35.8152 53.2993 37.051 53.9698 38.1183C54.6403 39.1856 55.6389 40.0334 56.8319 40.5483C58.0249 41.0632 59.3555 41.2206 60.6456 40.9996C61.9356 40.7785 63.1237 40.1894 64.0507 39.3112L66.2175 41.364Z" fill="black"/>
</svg>
