<svg width="150" height="80" viewBox="0 0 150 80" fill="none" xmlns="http://www.w3.org/2000/svg">
<path d="M19.9704 69.7337C30.9998 69.7337 39.9408 60.7927 39.9408 49.7633C39.9408 38.734 30.9998 29.7929 19.9704 29.7929C8.94106 29.7929 0 38.734 0 49.7633C0 60.7927 8.94106 69.7337 19.9704 69.7337Z" fill="black"/>
<path d="M73.2249 69.7337C84.2542 69.7337 93.1953 60.7927 93.1953 49.7633C93.1953 38.734 84.2542 29.7929 73.2249 29.7929C62.1955 29.7929 53.2544 38.734 53.2544 49.7633C53.2544 60.7927 62.1955 69.7337 73.2249 69.7337Z" fill="black"/>
<path d="M19.5266 63.5207C26.8795 63.5207 32.8402 57.56 32.8402 50.2071C32.8402 42.8542 26.8795 36.8935 19.5266 36.8935C12.1737 36.8935 6.21301 42.8542 6.21301 50.2071C6.21301 57.56 12.1737 63.5207 19.5266 63.5207Z" fill="#A01818"/>
<path d="M72.7811 63.5207C80.134 63.5207 86.0947 57.56 86.0947 50.2071C86.0947 42.8542 80.134 36.8935 72.7811 36.8935C65.4282 36.8935 59.4675 42.8542 59.4675 50.2071C59.4675 57.56 65.4282 63.5207 72.7811 63.5207Z" fill="#DBA61C"/>
<path d="M44.3787 25.355H35.503V69.7337H44.3787V25.355Z" fill="black"/>
<path d="M88.7574 10.2663H97.6331V69.7337H88.7574V10.2663Z" fill="black"/>
<path d="M144.166 39.7365C141.948 36.028 138.59 33.1374 134.592 31.4971C130.595 29.8569 126.174 29.5553 121.991 30.6374C117.808 31.7196 114.088 34.1273 111.387 37.5002C108.687 40.8731 107.151 45.0299 107.011 49.3484C106.87 53.6668 108.131 57.9148 110.606 61.4564C113.081 64.9981 116.637 67.643 120.741 68.9952C124.844 70.3475 129.276 70.3345 133.371 68.9581C137.467 67.5816 141.007 64.9159 143.461 61.3597L138.293 57.7932C136.609 60.2329 134.181 62.0617 131.371 63.006C128.561 63.9502 125.521 63.9592 122.706 63.0315C119.89 62.1037 117.451 60.2893 115.753 57.8595C114.055 55.4298 113.19 52.5156 113.287 49.553C113.383 46.5903 114.437 43.7386 116.289 41.4247C118.142 39.1107 120.694 37.4589 123.564 36.7165C126.433 35.9741 129.466 36.1811 132.209 37.3063C134.951 38.4316 137.255 40.4147 138.776 42.9588L144.166 39.7365Z" fill="black"/>
</svg>
