<svg width="50" height="30" viewBox="0 0 81 53" fill="none" xmlns="http://www.w3.org/2000/svg">
<path class="vk-svg" d="M80.57 47.8432C80.4709 47.5968 80.3799 47.3977 80.2973 47.2366C78.892 44.3363 76.2055 40.7725 72.2378 36.5453L72.1551 36.4505L72.1138 36.4031L72.0725 36.3557H72.0311C70.2291 34.3843 69.0884 33.0669 68.6172 32.3939C67.741 31.1049 67.5509 29.7969 68.022 28.4794C68.361 27.4842 69.6257 25.3706 71.8162 22.1481C72.9735 20.442 73.8827 19.0677 74.5606 18.0346C79.4293 10.6227 81.5372 5.88368 80.8842 3.81745L80.6362 3.33407C80.4708 3.04025 80.0327 2.77486 79.3301 2.53791C78.6275 2.29148 77.7265 2.25357 76.6271 2.41469L64.4841 2.50947C64.2858 2.43365 64.0047 2.43365 63.641 2.53791C63.2773 2.63269 63.0954 2.68008 63.0954 2.68008L62.8805 2.80329L62.7152 2.94547C62.5747 3.04025 62.4176 3.21085 62.2523 3.45728C62.087 3.69424 61.9464 3.97858 61.8307 4.30083C60.5081 8.20581 59.0037 11.8264 57.3174 15.1817C56.2759 17.1816 55.3253 18.9161 54.449 20.3852C53.5811 21.8543 52.8454 22.9348 52.2585 23.6267C51.6716 24.3186 51.1343 24.8778 50.6549 25.2948C50.1755 25.7119 49.8117 25.8919 49.5555 25.8256C49.2992 25.7592 49.0595 25.6929 48.8363 25.636C48.4396 25.3422 48.1255 24.9536 47.8857 24.4513C47.646 23.9489 47.4807 23.3234 47.398 22.5651C47.3154 21.8069 47.2658 21.1529 47.2492 20.6032C47.2327 20.0534 47.241 19.2762 47.274 18.281C47.3071 17.2858 47.3154 16.6034 47.3154 16.2527C47.3154 15.03 47.3402 13.6936 47.3815 12.2624C47.4228 10.8312 47.4559 9.69387 47.489 8.85032C47.5138 8.01625 47.5303 7.12531 47.5303 6.18697C47.5303 5.24864 47.4807 4.51883 47.3815 3.98806C47.2823 3.45728 47.1335 2.93599 46.9434 2.44313C46.745 1.94079 46.4557 1.55219 46.0755 1.2868C45.6952 1.01193 45.224 0.793939 44.6619 0.632812C43.174 0.24421 41.2728 0.0356909 38.9666 0.00725666C33.7341 -0.05909 30.3781 0.329512 28.8902 1.17306C28.3033 1.52375 27.766 2.00714 27.2865 2.62321C26.7823 3.33407 26.7079 3.72267 27.0716 3.77954C28.7579 4.07336 29.9565 4.76526 30.6591 5.85524L30.9154 6.43341C31.1137 6.85044 31.3121 7.59921 31.5023 8.66076C31.7006 9.7223 31.8246 10.8976 31.8825 12.1866C32.023 14.5372 32.023 16.556 31.8825 18.2336C31.742 19.9113 31.6097 21.2192 31.4857 22.1481C31.3617 23.0864 31.1716 23.8447 30.9154 24.4228C30.6591 25.001 30.4938 25.3612 30.4111 25.4844C30.3285 25.6171 30.2541 25.6929 30.2045 25.7213C29.8408 25.8825 29.4605 25.9678 29.0637 25.9678C28.667 25.9678 28.1958 25.7403 27.6337 25.2948C27.0716 24.8399 26.4847 24.2238 25.8813 23.4371C25.2778 22.6504 24.5918 21.5415 23.8313 20.1198C23.0708 18.6981 22.2855 17.0204 21.4672 15.0869L20.7893 13.6841C20.3678 12.7837 19.7891 11.4663 19.0617 9.74126C18.3343 8.01625 17.6813 6.3481 17.1192 4.73683C16.896 4.06388 16.5571 3.54259 16.1107 3.1919L15.8958 3.04973C15.7553 2.91703 15.5321 2.78434 15.218 2.64217C14.9121 2.5 14.5815 2.39574 14.2508 2.32939L2.69476 2.42417C1.5127 2.42417 0.710888 2.72747 0.289315 3.34355L0.123992 3.63737C0.0413307 3.79849 0 4.0544 0 4.41457C0 4.76526 0.0826614 5.20125 0.25625 5.72255C1.94254 10.272 3.77762 14.6509 5.7615 18.8781C7.74537 23.1054 9.46473 26.508 10.9278 29.086C12.3909 31.6641 13.8788 34.1 15.3998 36.3842C16.9208 38.6779 17.921 40.1375 18.417 40.782C18.9129 41.4265 19.2932 41.9099 19.5742 42.2322L20.6323 43.3885C21.3101 44.1657 22.302 45.0851 23.6081 46.1656C24.9141 47.2461 26.3607 48.3076 27.9561 49.3597C29.5432 50.4023 31.3948 51.2648 33.5027 51.9188C35.6105 52.5823 37.6605 52.8476 39.6609 52.7149H44.5131C45.4968 52.6202 46.2408 52.26 46.745 51.6534L46.9103 51.407C47.0261 51.2174 47.1253 50.9141 47.2244 50.516C47.3236 50.1085 47.3732 49.6725 47.3732 49.1891C47.3484 47.8053 47.4394 46.5542 47.646 45.4452C47.8527 44.3363 48.0924 43.4928 48.3652 42.9335C48.6297 42.3649 48.9355 41.891 49.2744 41.5118C49.6134 41.1232 49.8531 40.8863 49.9936 40.8105C50.1341 40.7251 50.2416 40.6778 50.3325 40.6399C51.0103 40.3839 51.8039 40.6304 52.7132 41.3886C53.6307 42.1469 54.4821 43.0852 55.2839 44.1941C56.0857 45.3031 57.0446 46.5542 58.1688 47.938C59.293 49.3218 60.2767 50.3549 61.1198 51.0373L61.963 51.6155C62.5251 52.0041 63.2608 52.3548 64.1535 52.677C65.0545 52.9993 65.8398 53.0846 66.5176 52.914L77.3132 52.7244C78.3795 52.7244 79.2144 52.5254 79.8013 52.1178C80.3882 51.7103 80.7436 51.2743 80.8594 50.7909C80.9751 50.3075 80.9751 49.7578 80.8842 49.1417C80.7684 48.5161 80.6692 48.0802 80.57 47.8432Z" />
</svg>
