<?xml version="1.0" standalone="no"?>
<!DOCTYPE svg PUBLIC "-//W3C//DTD SVG 20010904//EN"
 "http://www.w3.org/TR/2001/REC-SVG-20010904/DTD/svg10.dtd">
<svg version="1.0" xmlns="http://www.w3.org/2000/svg"
 width="512.000000pt" height="512.000000pt" viewBox="0 0 512.000000 512.000000"
 preserveAspectRatio="xMidYMid meet">
<metadata>
Created by potrace 1.14, written by Peter Selinger 2001-2017
</metadata>
<g transform="translate(0.000000,512.000000) scale(0.100000,-0.100000)"
fill="#000000" stroke="none">
<path d="M1441 4644 c-17 -14 -41 -39 -53 -56 -12 -17 -74 -175 -138 -351
l-116 -320 -46 -12 c-93 -23 -172 -101 -198 -195 -6 -19 -10 -173 -10 -346 l0
-312 -29 -11 c-15 -7 -33 -24 -40 -37 -14 -32 -14 -246 0 -277 12 -26 47 -47
79 -47 19 0 20 -8 20 -139 0 -77 3 -146 6 -155 5 -14 -12 -16 -154 -16 -205 0
-192 14 -192 -206 0 -196 -1 -194 112 -194 74 0 79 -2 649 -229 316 -126 634
-252 707 -281 72 -29 132 -55 132 -59 0 -4 -100 -47 -222 -95 -123 -49 -442
-176 -709 -282 -481 -192 -488 -194 -562 -194 -107 0 -107 0 -107 -212 l0
-168 1990 0 1990 0 0 168 c0 212 0 212 -106 212 -74 0 -77 1 -784 282 -390
156 -710 286 -710 289 0 3 318 132 708 287 l707 282 76 0 c110 0 109 -1 109
196 0 217 12 204 -188 204 l-157 0 3 155 c3 145 4 155 22 155 32 0 67 21 79
47 14 31 14 245 0 277 -7 13 -25 30 -40 37 l-29 11 0 312 c0 173 -4 327 -10
346 -26 94 -105 172 -197 195 l-47 12 -63 174 c-179 493 -174 480 -223 531
l-46 48 -1091 0 -1091 0 -31 -26z m2102 -45 c21 -6 55 -27 75 -47 33 -33 51
-73 144 -332 59 -162 106 -295 104 -297 -1 -2 -590 -2 -1308 -1 l-1306 3 102
280 c56 154 110 294 121 312 24 41 65 71 112 82 56 13 1909 13 1956 0z m498
-812 c27 -15 52 -38 66 -63 22 -38 23 -46 23 -356 l0 -318 -437 1 -438 0 -76
102 -76 102 -571 3 -572 2 -77 -104 -78 -105 -407 -1 -408 0 0 308 c0 276 2
311 19 347 10 22 28 48 39 58 53 47 9 46 1523 47 l1426 0 44 -23z m-956 -684
l37 -48 -296 -3 c-163 -1 -429 -1 -592 0 l-296 3 37 48 36 47 519 0 519 0 36
-47z m1125 -238 l0 -75 -1545 0 -1545 0 0 75 0 75 1545 0 1545 0 0 -75z m-640
-309 c0 -68 3 -138 6 -155 l7 -31 -1023 0 -1022 0 6 23 c3 12 6 82 6 155 l0
132 1010 0 1010 0 0 -124z m870 -386 l0 -90 -1880 0 -1880 0 0 90 0 90 1880 0
1880 0 0 -90z m-2152 -626 c587 -234 1229 -490 1427 -569 l360 -144 -82 0 -82
-1 -593 236 c-981 390 -1453 578 -1863 741 -214 85 -392 157 -394 159 -2 2 33
4 78 4 l82 0 1067 -426z m1311 421 c-3 -2 -72 -31 -154 -64 -83 -32 -315 -125
-517 -205 l-366 -145 -524 209 -523 209 1044 1 c574 0 1042 -2 1040 -5z m386
-29 c-44 -18 -331 -133 -637 -255 -543 -217 -559 -222 -593 -210 -19 7 -35 16
-35 19 0 4 219 93 488 200 268 106 534 212 592 236 94 39 113 43 185 43 l80 0
-80 -33z m-1616 -607 c17 -6 31 -14 31 -18 0 -4 -89 -42 -197 -85 -109 -43
-378 -150 -598 -238 l-399 -159 -74 3 -75 3 239 95 c132 52 417 165 634 252
217 86 398 158 401 158 3 0 20 -5 38 -11z m722 -288 l524 -210 -1055 0 -1055
0 520 208 c286 115 525 209 531 210 6 1 246 -93 535 -208z m1349 -426 l0 -105
-1880 0 -1880 0 0 105 0 105 1880 0 1880 0 0 -105z"/>
<path d="M1566 4478 c-21 -29 -20 -41 2 -61 22 -20 102 -23 120 -5 7 7 12 24
12 38 0 38 -18 50 -71 50 -38 0 -51 -5 -63 -22z"/>
<path d="M1777 4482 c-22 -24 -21 -45 1 -65 17 -15 65 -17 485 -17 l467 0 16
25 c15 23 15 27 0 50 l-16 25 -469 0 c-441 0 -469 -1 -484 -18z"/>
<path d="M1230 3726 c-94 -38 -148 -134 -137 -242 9 -87 47 -144 127 -189 32
-18 57 -20 290 -23 251 -3 255 -3 272 18 10 12 16 32 13 44 -2 11 -20 104 -40
206 -25 130 -41 189 -52 198 -12 9 -72 12 -217 12 -185 -1 -205 -3 -256 -24z
m417 -201 c12 -60 22 -118 23 -127 0 -17 -15 -18 -180 -18 -134 0 -190 4 -215
14 -87 37 -90 186 -3 229 27 14 61 16 193 14 l159 -2 23 -110z"/>
<path d="M3362 3737 c-13 -15 -21 -52 -62 -266 -28 -154 -29 -165 -14 -183 16
-16 37 -18 252 -18 272 0 296 5 364 70 88 86 99 214 25 313 -19 25 -54 53 -86
70 -54 27 -56 27 -262 27 -156 0 -209 -3 -217 -13z m431 -113 c67 -32 90 -120
49 -186 -33 -54 -53 -58 -261 -58 l-188 0 24 118 c13 64 26 123 28 130 7 20
304 17 348 -4z"/>
<path d="M1992 3694 c-27 -18 -29 -55 -4 -77 17 -15 69 -17 549 -17 501 0 531
1 546 18 22 25 21 48 -3 72 -19 19 -33 20 -543 20 -457 0 -525 -2 -545 -16z"/>
<path d="M1987 3542 c-22 -24 -21 -55 1 -75 17 -15 69 -17 543 -17 570 0 569
0 569 55 0 55 2 55 -571 55 -497 0 -527 -1 -542 -18z"/>
<path d="M1987 3402 c-22 -24 -21 -55 1 -75 17 -15 69 -17 543 -17 570 0 569
0 569 55 0 55 2 55 -571 55 -497 0 -527 -1 -542 -18z"/>
</g>
</svg>
