<svg  viewBox="0 0 100 100" fill="none" xmlns="http://www.w3.org/2000/svg">
<path d="M89.0625 56.25H87.5V42.1875C87.4975 40.1163 86.6736 38.1306 85.209 36.666C83.7444 35.2014 81.7587 34.3775 79.6875 34.375H65.625V18.75H79.6875C80.1019 18.75 80.4993 18.5854 80.7924 18.2924C81.0854 17.9993 81.25 17.6019 81.25 17.1875V4.6875C81.25 4.2731 81.0854 3.87567 80.7924 3.58265C80.4993 3.28962 80.1019 3.125 79.6875 3.125H4.6875C4.2731 3.125 3.87567 3.28962 3.58265 3.58265C3.28962 3.87567 3.125 4.2731 3.125 4.6875V85.9375C3.125 86.3519 3.28962 86.7493 3.58265 87.0424C3.87567 87.3354 4.2731 87.5 4.6875 87.5H9.5C9.87359 90.1013 11.1725 92.4808 13.1585 94.202C15.1445 95.9231 17.6845 96.8706 20.3125 96.8706C22.9405 96.8706 25.4805 95.9231 27.4665 94.202C29.4525 92.4808 30.7514 90.1013 31.125 87.5H34.5C34.8736 90.1013 36.1725 92.4808 38.1585 94.202C40.1445 95.9231 42.6845 96.8706 45.3125 96.8706C47.9405 96.8706 50.4805 95.9231 52.4665 94.202C54.4525 92.4808 55.7514 90.1013 56.125 87.5H62.625C62.9986 90.1013 64.2975 92.4808 66.2835 94.202C68.2695 95.9231 70.8095 96.8706 73.4375 96.8706C76.0655 96.8706 78.6055 95.9231 80.5915 94.202C82.5775 92.4808 83.8764 90.1013 84.25 87.5H89.0625C91.1337 87.4975 93.1194 86.6736 94.584 85.209C96.0486 83.7444 96.8725 81.7587 96.875 79.6875V64.0625C96.8725 61.9913 96.0486 60.0056 94.584 58.541C93.1194 57.0764 91.1337 56.2525 89.0625 56.25ZM79.6875 37.5C80.9307 37.5 82.123 37.9939 83.0021 38.8729C83.8811 39.752 84.375 40.9443 84.375 42.1875V56.25H65.625V37.5H79.6875ZM62.5 65.625H6.25V18.75H62.5V65.625ZM64.0625 15.625H56.25V6.25H65.625V15.625H64.0625ZM53.125 15.625H43.75V6.25H53.125V15.625ZM40.625 15.625H31.25V6.25H40.625V15.625ZM28.125 15.625H18.75V6.25H28.125V15.625ZM78.125 15.625H68.75V6.25H78.125V15.625ZM6.25 6.25H15.625V15.625H6.25V6.25ZM6.25 68.75H62.5V84.375H56.125C55.7514 81.7737 54.4525 79.3942 52.4665 77.673C50.4805 75.9519 47.9405 75.0044 45.3125 75.0044C42.6845 75.0044 40.1445 75.9519 38.1585 77.673C36.1725 79.3942 34.8736 81.7737 34.5 84.375H31.125C30.7514 81.7737 29.4525 79.3942 27.4665 77.673C25.4805 75.9519 22.9405 75.0044 20.3125 75.0044C17.6845 75.0044 15.1445 75.9519 13.1585 77.673C11.1725 79.3942 9.87359 81.7737 9.5 84.375H6.25V68.75ZM20.3125 93.75C18.7673 93.75 17.2569 93.2918 15.9721 92.4334C14.6873 91.5749 13.686 90.3548 13.0947 88.9272C12.5034 87.4997 12.3487 85.9288 12.6501 84.4134C12.9516 82.8979 13.6956 81.5058 14.7882 80.4132C15.8808 79.3206 17.2729 78.5766 18.7884 78.2751C20.3038 77.9737 21.8747 78.1284 23.3022 78.7197C24.7298 79.311 25.9499 80.3123 26.8084 81.5971C27.6668 82.8819 28.125 84.3923 28.125 85.9375C28.1225 88.0087 27.2986 89.9944 25.834 91.459C24.3694 92.9236 22.3837 93.7475 20.3125 93.75ZM45.3125 93.75C43.7673 93.75 42.2569 93.2918 40.9721 92.4334C39.6873 91.5749 38.686 90.3548 38.0947 88.9272C37.5034 87.4997 37.3487 85.9288 37.6501 84.4134C37.9516 82.8979 38.6956 81.5058 39.7882 80.4132C40.8808 79.3206 42.2729 78.5766 43.7884 78.2751C45.3038 77.9737 46.8747 78.1284 48.3022 78.7197C49.7298 79.311 50.9499 80.3123 51.8084 81.5971C52.6668 82.8819 53.125 84.3923 53.125 85.9375C53.1225 88.0087 52.2986 89.9944 50.834 91.459C49.3694 92.9236 47.3837 93.7475 45.3125 93.75ZM73.4375 93.75C71.8923 93.75 70.3819 93.2918 69.0971 92.4334C67.8123 91.5749 66.811 90.3548 66.2197 88.9272C65.6284 87.4997 65.4737 85.9288 65.7751 84.4134C66.0766 82.8979 66.8206 81.5058 67.9132 80.4132C69.0058 79.3206 70.3979 78.5766 71.9134 78.2751C73.4288 77.9737 74.9997 78.1284 76.4272 78.7197C77.8548 79.311 79.0749 80.3123 79.9334 81.5971C80.7918 82.8819 81.25 84.3923 81.25 85.9375C81.2475 88.0087 80.4236 89.9944 78.959 91.459C77.4944 92.9236 75.5087 93.7475 73.4375 93.75ZM93.75 79.6875C93.75 80.9307 93.2561 82.123 92.3771 83.0021C91.498 83.8811 90.3057 84.375 89.0625 84.375H84.25C83.9618 82.3561 83.1139 80.4582 81.8024 78.8965C80.4908 77.3348 78.768 76.1717 76.8293 75.539C74.8905 74.9063 72.8133 74.8293 70.833 75.3167C68.8527 75.8042 67.0486 76.8366 65.625 78.2969V59.375H89.0625C90.3057 59.375 91.498 59.8689 92.3771 60.7479C93.2561 61.627 93.75 62.8193 93.75 64.0625V79.6875Z" fill="black"/>
<path d="M34.375 62.5C38.3924 62.5 42.3196 61.3087 45.66 59.0767C49.0004 56.8448 51.6039 53.6724 53.1413 49.9608C54.6787 46.2491 55.081 42.165 54.2972 38.2247C53.5134 34.2845 51.5789 30.6652 48.7381 27.8244C45.8974 24.9836 42.278 23.0491 38.3378 22.2653C34.3975 21.4815 30.3134 21.8838 26.6017 23.4212C22.8901 24.9586 19.7177 27.5621 17.4858 30.9025C15.2538 34.2429 14.0625 38.1701 14.0625 42.1875C14.0687 47.5728 16.2108 52.7358 20.0187 56.5438C23.8267 60.3518 28.9897 62.4938 34.375 62.5ZM32.8125 59.2953V47.8891C32.8124 47.5648 32.7114 47.2486 32.5236 46.9843C32.3357 46.72 32.0703 46.5208 31.7641 46.4141C30.433 45.9427 29.2547 45.1191 28.3548 44.0309C27.4549 42.9427 26.8671 41.6308 26.654 40.2349C26.4409 38.839 26.6105 37.4115 27.1447 36.1044C27.6789 34.7973 28.5577 33.6596 29.6875 32.8125V39.0625C29.6875 39.4769 29.8521 39.8743 30.1451 40.1674C30.4382 40.4604 30.8356 40.625 31.25 40.625H37.5C37.9144 40.625 38.3118 40.4604 38.6049 40.1674C38.8979 39.8743 39.0625 39.4769 39.0625 39.0625V32.8125C40.1927 33.6595 41.0719 34.7972 41.6064 36.1046C42.1409 37.4119 42.3106 38.8397 42.0974 40.2359C41.8843 41.632 41.2963 42.9442 40.3962 44.0325C39.496 45.1208 38.3174 45.9444 36.9859 46.4156C36.6797 46.5223 36.4143 46.7216 36.2264 46.9859C36.0386 47.2502 35.9376 47.5664 35.9375 47.8906V59.2969C35.4219 59.3438 34.9031 59.3766 34.375 59.3766C33.8469 59.3766 33.3281 59.3422 32.8125 59.2953ZM34.375 25C38.5226 24.9984 42.5307 26.4973 45.6594 29.2201C48.7882 31.9428 50.8263 35.7055 51.3975 39.8135C51.9688 43.9216 51.0346 48.0976 48.7674 51.5706C46.5002 55.0437 43.0531 57.5793 39.0625 58.7094V48.9391C41.0195 48.0125 42.657 46.5253 43.7672 44.6663C44.8774 42.8073 45.4101 40.6604 45.2977 38.498C45.1854 36.3357 44.433 34.2555 43.1362 32.5216C41.8394 30.7876 40.0565 29.4782 38.0141 28.7594C37.7786 28.6774 37.527 28.6529 37.2801 28.6879C37.0333 28.723 36.7984 28.8167 36.5952 28.9611C36.3919 29.1054 36.2262 29.2964 36.1117 29.5179C35.9973 29.7394 35.9376 29.9851 35.9375 30.2344V37.5H32.8125V30.2344C32.8124 29.9851 32.7527 29.7394 32.6383 29.5179C32.5238 29.2964 32.3581 29.1054 32.1548 28.9611C31.9516 28.8167 31.7167 28.723 31.4699 28.6879C31.223 28.6529 30.9714 28.6774 30.7359 28.7594C28.6935 29.4782 26.9106 30.7876 25.6138 32.5216C24.317 34.2555 23.5646 36.3357 23.4523 38.498C23.3399 40.6604 23.8726 42.8073 24.9828 44.6663C26.093 46.5253 27.7305 48.0125 29.6875 48.9391V58.7094C25.6969 57.5793 22.2498 55.0437 19.9826 51.5706C17.7154 48.0976 16.7812 43.9216 17.3525 39.8135C17.9237 35.7055 19.9618 31.9428 23.0906 29.2201C26.2193 26.4973 30.2274 24.9984 34.375 25Z" fill="black"/>
</svg>
