<svg  viewBox="0 0 100 100" fill="none" xmlns="http://www.w3.org/2000/svg">
<path d="M22.6035 32.1494H38.6595C39.4685 32.1494 40.1244 31.4936 40.1244 30.6846C40.1244 29.8756 39.4685 29.2197 38.6595 29.2197H23.0574L26.5711 18.6201C26.6066 18.5139 26.6377 18.433 26.6634 18.3721H57.499C57.5242 18.4324 57.5541 18.5123 57.5882 18.6172L61.1082 29.2197H45.6088C44.7998 29.2197 44.1439 29.8756 44.1439 30.6846C44.1439 31.4936 44.7998 32.1494 45.6088 32.1494H61.5625C62.4121 32.1494 63.2838 31.701 63.7836 31.007C64.2218 30.3984 64.3418 29.6564 64.1138 28.9746L60.3714 17.7021C59.7634 15.8344 58.6468 15.4424 57.8173 15.4424H26.3484C25.1513 15.4424 24.2914 16.199 23.7912 17.6947L20.0531 28.9717C19.8242 29.6564 19.9441 30.3984 20.3824 31.007C20.8822 31.701 21.7539 32.1494 22.6035 32.1494Z" fill="black"/>
<path d="M57.0186 40.6317V44.0192C57.0186 45.8282 58.4928 47.2999 60.3047 47.2999H69.2461C71.058 47.2999 72.5322 45.8282 72.5322 44.0192V40.6317C72.5322 38.8228 71.058 37.3511 69.2461 37.3511H60.3047C58.4928 37.3513 57.0186 38.8229 57.0186 40.6317ZM69.6027 40.6317V44.0192C69.6027 44.2095 69.4395 44.3702 69.2463 44.3702H60.3049C60.1117 44.3702 59.9484 44.2095 59.9484 44.0192V40.6317C59.9484 40.4415 60.1117 40.2808 60.3049 40.2808H69.2463C69.4395 40.281 69.6027 40.4415 69.6027 40.6317Z" fill="black"/>
<path d="M51.4371 40.5908H32.7289C31.9199 40.5908 31.264 41.2467 31.264 42.0557C31.264 42.8646 31.9199 43.5205 32.7289 43.5205H51.4371C52.2463 43.5205 52.9019 42.8646 52.9019 42.0557C52.9019 41.2467 52.2461 40.5908 51.4371 40.5908Z" fill="black"/>
<path d="M48.1246 46.4131H36.0414C35.2324 46.4131 34.5765 47.0689 34.5765 47.8779C34.5765 48.6869 35.2324 49.3428 36.0414 49.3428H48.1246C48.9336 49.3428 49.5894 48.6869 49.5894 47.8779C49.5894 47.0689 48.9336 46.4131 48.1246 46.4131Z" fill="black"/>
<path d="M11.6335 40.6317V44.0192C11.6335 45.8282 13.1076 47.2999 14.9197 47.2999H23.8613C25.6732 47.2999 27.1474 45.8282 27.1474 44.0192V40.6317C27.1474 38.8228 25.6732 37.3511 23.8613 37.3511H14.9197C13.1078 37.3513 11.6335 38.8229 11.6335 40.6317ZM14.5632 40.6317C14.5632 40.4415 14.7263 40.2808 14.9197 40.2808H23.8613C24.0544 40.2808 24.2177 40.4415 24.2177 40.6317V44.0192C24.2177 44.2095 24.0544 44.3702 23.8613 44.3702H14.9197C14.7265 44.3702 14.5632 44.2095 14.5632 44.0192V40.6317Z" fill="black"/>
<path d="M96.8447 63.2658H96.0006C95.6672 62.2242 95.2457 61.2107 94.7398 60.2352L95.3348 59.6397C95.9291 59.0471 96.2564 58.2564 96.2564 57.4135C96.2564 56.5703 95.9291 55.7797 95.3348 55.1873L91.3449 51.2096C90.1172 49.9857 88.1193 49.9861 86.8939 51.2076L86.29 51.8072C85.3096 51.3016 84.291 50.8803 83.2438 50.5473V49.7107C83.2438 48.1727 82.1332 46.8906 80.6713 46.6166C80.6713 46.6166 80.6758 43.8664 80.6803 43.4951C80.7148 40.583 80.7443 38.0674 78.4731 35.193C81.6664 34.7639 84.1375 32.0287 84.1375 28.727C84.1375 25.1314 81.2029 22.2063 77.5959 22.2063H70.1137L66.7881 12.5674C66.0353 10.4043 63.2779 8.10547 59.6502 8.10547H24.5102C20.8752 8.10547 18.1219 10.4066 17.377 12.5709L14.0523 22.2063H6.56445C2.96035 22.2063 0.0283203 25.1314 0.0283203 28.727C0.0283203 32.0303 2.49941 34.7664 5.69238 35.1936C3.41797 38.0721 3.44668 40.5924 3.48027 43.5102C3.48438 43.8768 3.48887 44.2557 3.48887 44.6518L3.50391 54.0559C1.47676 54.6816 0 56.5695 0 58.7953V60.2594C0 62.4832 1.47773 64.3693 3.50605 64.9941V70.808C3.50605 73.127 5.39648 75.0135 7.71992 75.0135H15.0734C17.3969 75.0135 19.2873 73.127 19.2873 70.808V65.2139H32.4441C33.2531 65.2139 33.909 64.558 33.909 63.749C33.909 62.94 33.2531 62.2842 32.4441 62.2842H17.8225H4.9709C3.84531 62.2842 2.92969 61.3758 2.92969 60.2594V58.7953C2.92969 57.6758 3.84531 56.7648 4.97207 56.7648H4.97324L58.3549 56.7217C58.3047 56.9463 58.2764 57.1775 58.2764 57.4137C58.2764 58.2592 58.6066 59.0512 59.2 59.6377L59.7971 60.2354C59.452 60.9012 59.149 61.5859 58.8836 62.2842H39.3937C38.5848 62.2842 37.9289 62.94 37.9289 63.749C37.9289 64.558 38.5848 65.2139 39.3937 65.2139H54.777C54.623 65.5846 54.5369 65.9902 54.5369 66.416V72.0393C54.5369 73.7764 55.9523 75.1895 57.6922 75.1895H58.5361C58.8699 76.2342 59.2912 77.2486 59.7959 78.2234L59.2062 78.8111C58.6064 79.4041 58.276 80.1961 58.276 81.0414C58.276 81.8869 58.6063 82.6791 59.2018 83.2678L63.1871 87.2408C63.7805 87.8377 64.5729 88.1664 65.418 88.1666H65.4182C66.2633 88.1666 67.0559 87.8379 67.6447 87.2453L68.243 86.6488C69.2227 87.1535 70.2424 87.5748 71.2924 87.9082V88.7445C71.2924 90.4814 72.7078 91.8945 74.4477 91.8945H80.0881C81.8277 91.8945 83.2432 90.4814 83.2432 88.7445V87.908C84.2904 87.575 85.3092 87.1535 86.2895 86.6479L86.8867 87.241C87.4805 87.8379 88.2729 88.1666 89.118 88.1666C89.9629 88.1666 90.7553 87.8379 91.3443 87.2455L95.3342 83.2678C95.9285 82.6752 96.2559 81.8846 96.2559 81.0414C96.2559 80.1984 95.9285 79.4078 95.3342 78.8156L94.7402 78.2234C95.2451 77.2486 95.6664 76.2338 96.0002 75.1895H96.8441C98.584 75.1895 99.9994 73.7764 99.9994 72.0393V66.416C100 64.6789 98.5846 63.2658 96.8447 63.2658ZM16.3576 65.2139V70.808C16.3576 71.4996 15.7695 72.0838 15.0734 72.0838H7.71992C7.02383 72.0838 6.43574 71.4996 6.43574 70.808V65.2139H16.3576ZM77.5959 25.1359C79.5875 25.1359 81.2078 26.7469 81.2078 28.727C81.2078 30.7102 79.5875 32.3236 77.5959 32.3236H75.6594L72.4975 29.1154L71.1244 25.1359H77.5959ZM20.1467 13.5254C20.4455 12.657 22.0322 11.0352 24.5102 11.0352H59.6502C62.1256 11.0352 63.7184 12.66 64.0197 13.5264L69.8363 30.3848C69.9076 30.5914 70.0244 30.7795 70.1777 30.9352L74.0039 34.8172C74.0076 34.8209 74.0113 34.8248 74.015 34.8285L76.216 37.0617C77.8025 39.098 77.783 40.7465 77.7508 43.4602C77.7463 43.8426 77.7416 46.5604 77.7416 46.5604H74.4482C72.7084 46.5604 71.293 47.9734 71.293 49.7105V50.5469C70.243 50.8803 69.2232 51.3014 68.2436 51.8062L67.6453 51.2096C66.4174 49.9855 64.4197 49.9857 63.1922 51.2096L60.6037 53.79L6.4334 53.8338L6.41875 44.649C6.41875 44.2437 6.41426 43.8537 6.40996 43.4762C6.37871 40.7555 6.35977 39.1027 7.9502 37.0617L10.1521 34.8275C10.1551 34.8246 10.1578 34.8217 10.1607 34.8188L13.9883 30.9352C14.1418 30.7795 14.2584 30.5914 14.3297 30.3848L20.1467 13.5254ZM2.9582 28.727C2.9582 26.7469 4.57598 25.1359 6.56465 25.1359H13.0416L11.6686 29.1154L8.50664 32.3236H6.56445C4.57598 32.3236 2.9582 30.7102 2.9582 28.727ZM97.0703 72.0393C97.0703 72.1547 96.9627 72.2598 96.8447 72.2598H94.8982C94.2291 72.2598 93.6449 72.7133 93.4791 73.3615C93.0865 74.8959 92.4758 76.366 91.6641 77.7309C91.3211 78.3074 91.4139 79.0434 91.8889 79.517L93.2662 80.8904C93.316 80.94 93.3266 81 93.3266 81.0416C93.3266 81.0832 93.316 81.1434 93.2662 81.193L89.2719 85.1752C89.2211 85.2262 89.1604 85.2369 89.1184 85.2369C89.0762 85.2369 89.0154 85.2262 88.958 85.1685L87.575 83.7953C87.102 83.3254 86.3713 83.2348 85.7973 83.5738C84.4252 84.3852 82.9518 84.9941 81.418 85.3842C80.7686 85.5492 80.3141 86.1338 80.3141 86.8039V88.7445C80.3141 88.8641 80.2109 88.9648 80.0887 88.9648H74.4482C74.326 88.9648 74.2227 88.8639 74.2227 88.7445V86.8039C74.2227 86.134 73.7682 85.5494 73.1189 85.3842C71.5783 84.9924 70.1031 84.3834 68.734 83.5738C68.502 83.4367 68.2445 83.3699 67.9889 83.3699C67.6107 83.3699 67.2363 83.5162 66.9543 83.7975L65.5725 85.175C65.5217 85.226 65.4609 85.2367 65.4187 85.2367C65.3766 85.2367 65.316 85.226 65.2605 85.1705L61.2662 81.1885C61.2166 81.1395 61.2061 81.0814 61.2061 81.0414C61.2061 81.0016 61.2166 80.9436 61.2705 80.8902L62.648 79.517C63.1232 79.0434 63.2158 78.3074 62.8727 77.7307C62.0611 76.3664 61.4506 74.8965 61.0578 73.3613C60.892 72.7131 60.3078 72.2596 59.6387 72.2596H57.6922C57.5699 72.2596 57.4666 72.1586 57.4666 72.0391V66.416C57.4666 66.2965 57.5699 66.1957 57.6922 66.1957H59.6387C60.3078 66.1957 60.892 65.7422 61.0578 65.0939C61.4488 63.5654 62.0596 62.0975 62.8727 60.7303C63.2152 60.1545 63.1234 59.4199 62.65 58.9461L61.266 57.5609C61.2164 57.5119 61.2059 57.4539 61.2059 57.4139C61.2059 57.3738 61.2164 57.3158 61.2703 57.2625L62.2455 56.2902C62.2459 56.2898 62.2461 56.2896 62.2465 56.2893L65.2605 53.2846C65.343 53.2021 65.4939 53.2021 65.5768 53.2846L66.9541 54.6578C67.4271 55.1295 68.1594 55.2213 68.7336 54.8814C70.1031 54.0719 71.5783 53.4629 73.1188 53.0711C73.768 52.9061 74.2225 52.3215 74.2225 51.6514V49.7107C74.2225 49.5953 74.3301 49.4902 74.4481 49.4902H80.0885C80.2064 49.4902 80.3139 49.5953 80.3139 49.7107V51.6514C80.3139 52.3213 80.7684 52.9059 81.4178 53.0711C82.9516 53.4611 84.4248 54.0701 85.7973 54.8814C86.3707 55.2207 87.1018 55.1297 87.5748 54.66L88.96 53.2848C89.0428 53.2023 89.1936 53.202 89.2764 53.2848L93.2662 57.2625C93.316 57.3121 93.3266 57.3723 93.3266 57.4139C93.3266 57.4555 93.316 57.5156 93.2641 57.5674L91.8867 58.9463C91.4135 59.4201 91.3217 60.1547 91.6641 60.7303C92.4775 62.0979 93.0881 63.5662 93.4791 65.0939C93.6449 65.7422 94.2291 66.1957 94.8982 66.1957H96.8447C96.9627 66.1957 97.0703 66.3008 97.0703 66.416V72.0393Z" fill="black"/>
<path d="M77.2656 57.0239C74.7498 57.0239 72.3324 57.7821 70.2752 59.2165C69.6115 59.6792 69.4486 60.5923 69.9113 61.2558C70.374 61.9194 71.2869 62.0825 71.9506 61.6196C73.5141 60.5296 75.352 59.9536 77.2656 59.9536C82.3988 59.9536 86.575 64.1151 86.575 69.2304C86.575 74.3425 82.3988 78.5015 77.2656 78.5015C72.1355 78.5015 67.9619 74.3425 67.9619 69.2304C67.9619 68.1735 68.1369 67.1427 68.4816 66.1659C68.751 65.403 68.351 64.5663 67.5881 64.297C66.8252 64.0278 65.9887 64.4276 65.7191 65.1905C65.2635 66.4811 65.0322 67.8405 65.0322 69.2304C65.0322 75.9579 70.5201 81.4312 77.2656 81.4312C84.0143 81.4312 89.5047 75.9579 89.5047 69.2304C89.5047 62.4997 84.0143 57.0239 77.2656 57.0239Z" fill="black"/>
</svg>
