<svg viewBox="0 0 100 90" fill="none" xmlns="http://www.w3.org/2000/svg">
<path d="M1.5625 85.7812V88.5938H98.4375V85.7812H73.4375H26.5625H1.5625Z" fill="black"/>
<path d="M26.5625 68.9062C23.1156 68.9062 20.3125 71.4291 20.3125 74.5312C20.3125 77.6334 23.1156 80.1562 26.5625 80.1562C30.0094 80.1562 32.8125 77.6334 32.8125 74.5312C32.8125 71.4291 30.0094 68.9062 26.5625 68.9062ZM26.5625 77.3438C24.8391 77.3438 23.4375 76.0823 23.4375 74.5312C23.4375 72.9802 24.8391 71.7188 26.5625 71.7188C28.2859 71.7188 29.6875 72.9802 29.6875 74.5312C29.6875 76.0823 28.2859 77.3438 26.5625 77.3438Z" fill="black"/>
<path d="M73.4375 68.9062C69.9906 68.9062 67.1875 71.4291 67.1875 74.5312C67.1875 77.6334 69.9906 80.1562 73.4375 80.1562C76.8844 80.1562 79.6875 77.6334 79.6875 74.5312C79.6875 71.4291 76.8844 68.9062 73.4375 68.9062ZM73.4375 77.3438C71.7141 77.3438 70.3125 76.0823 70.3125 74.5312C70.3125 72.9802 71.7141 71.7188 73.4375 71.7188C75.1609 71.7188 76.5625 72.9802 76.5625 74.5312C76.5625 76.0823 75.1609 77.3438 73.4375 77.3438Z" fill="black"/>
<path d="M97.5734 56.3977L85.3953 50.9175L83.7234 48.9628C92.4812 44.6681 98.4375 36.308 98.4375 26.7188C98.4375 12.7617 85.8203 1.40625 70.3125 1.40625C54.8047 1.40625 42.1875 12.7617 42.1875 26.7188C42.1875 28.7367 42.4797 30.6886 42.9766 32.5716C40.4484 33.0511 38.1766 34.3083 36.5719 36.1856L24.8844 49.8586L4.26719 29.977L1.98281 31.8966L12.1297 41.6812L8.04062 53.9423C4.24375 55.0645 1.5625 58.2792 1.5625 61.9341V71.7188C1.5625 74.0447 3.66562 75.9375 6.25 75.9375H14.1703C14.9438 81.4781 20.2 85.7812 26.5625 85.7812C32.925 85.7812 38.1812 81.4781 38.9547 75.9375H61.0469C61.8203 81.4781 67.0766 85.7812 73.4391 85.7812C79.8016 85.7812 85.0578 81.4781 85.8312 75.9375H93.75C96.3344 75.9375 98.4375 74.0447 98.4375 71.7188V57.6562C98.4375 57.1233 98.1031 56.6367 97.5734 56.3977ZM95.3125 67.5H92.1875V57.1191L95.3125 58.5253V67.5ZM70.3125 4.21875C84.0969 4.21875 95.3125 14.3128 95.3125 26.7188C95.3125 39.1247 84.0969 49.2188 70.3125 49.2188C56.5281 49.2188 45.3125 39.1247 45.3125 26.7188C45.3125 14.3128 56.5281 4.21875 70.3125 4.21875ZM73.5625 52.0312H70.3125H56.25V48.6056C60.3922 50.7712 65.1875 52.0312 70.3125 52.0312C71.3688 52.0312 72.4078 51.968 73.4328 51.8653L73.5625 52.0312ZM46.9438 40.7812C48.6328 43.0481 50.7328 45.0408 53.125 46.71V52.0312H35.8125L43.6297 41.9808C44.2141 41.2284 45.1719 40.7812 46.1906 40.7812H46.9438ZM21.9766 51.1762L11.5562 53.1858L14.5984 44.062L21.9766 51.1762ZM4.69375 61.875H7.8125V64.6875H4.6875V61.9341C4.6875 61.9144 4.69375 61.8947 4.69375 61.875ZM26.5625 82.9688C21.3922 82.9688 17.1875 79.1845 17.1875 74.5312C17.1875 69.878 21.3922 66.0938 26.5625 66.0938C31.7328 66.0938 35.9375 69.878 35.9375 74.5312C35.9375 79.1845 31.7328 82.9688 26.5625 82.9688ZM73.4375 82.9688C68.2672 82.9688 64.0625 79.1845 64.0625 74.5312C64.0625 69.878 68.2672 66.0938 73.4375 66.0938C78.6078 66.0938 82.8125 69.878 82.8125 74.5312C82.8125 79.1845 78.6078 82.9688 73.4375 82.9688ZM93.75 73.125H85.8297C85.0563 67.5844 79.8 63.2812 73.4375 63.2812C67.075 63.2812 61.8188 67.5844 61.0453 73.125H38.9547C38.1812 67.5844 32.925 63.2812 26.5625 63.2812C20.2 63.2812 14.9438 67.5844 14.1703 73.125H6.25C5.38906 73.125 4.6875 72.495 4.6875 71.7188V67.5H9.375C10.2375 67.5 10.9375 66.8714 10.9375 66.0938V60.4688C10.9375 59.6911 10.2375 59.0625 9.375 59.0625H5.58594C6.45625 57.7547 7.89375 56.7689 9.62813 56.4342L25.3281 53.4066C25.6906 53.3363 26.0125 53.1534 26.2391 52.8891L39.05 37.9012C40.25 36.4978 41.9703 35.5767 43.8766 35.273C44.2594 36.2264 44.6984 37.1531 45.1984 38.0503C43.5453 38.2908 42.0469 39.1148 41.0703 40.3692L31.5328 52.6331C31.1984 53.0634 31.1578 53.6231 31.4266 54.0886C31.6953 54.5527 32.2297 54.8438 32.8125 54.8438H76.5625C77.1453 54.8438 77.6797 54.5527 77.9484 54.0872C78.2172 53.6217 78.1766 53.062 77.8438 52.6317L76.8234 51.3197C78.1969 51.0244 79.5359 50.6489 80.8234 50.1806L83.1375 52.8891C83.2812 53.0578 83.4656 53.1956 83.6766 53.2898L89.0625 55.7128V68.9062C89.0625 69.6839 89.7625 70.3125 90.625 70.3125H95.3125V71.7188C95.3125 72.495 94.6109 73.125 93.75 73.125Z" fill="black"/>
<path d="M50 57.6562H56.25V60.4688H50V57.6562Z" fill="black"/>
<path d="M71.875 57.6562H78.125V60.4688H71.875V57.6562Z" fill="black"/>
<path d="M59.375 43.5938H81.25C83.8344 43.5938 85.9375 41.7009 85.9375 39.375V23.9062C85.9375 23.5322 85.7734 23.175 85.4797 22.912L77.6672 15.8808C77.375 15.6164 76.9766 15.4688 76.5625 15.4688H68.75V8.4375C68.75 7.65984 68.05 7.03125 67.1875 7.03125H60.9375C60.075 7.03125 59.375 7.65984 59.375 8.4375V16.065C56.6203 17.1534 54.6875 19.6242 54.6875 22.5V39.375C54.6875 41.7009 56.7906 43.5938 59.375 43.5938ZM62.5 9.84375H65.625V15.4688H62.5V9.84375ZM57.8125 22.5C57.8125 20.1741 59.9156 18.2812 62.5 18.2812H75.9156L82.8125 24.4884V39.375C82.8125 40.1512 82.1109 40.7812 81.25 40.7812H59.375C58.5141 40.7812 57.8125 40.1512 57.8125 39.375V22.5Z" fill="black"/>
<path d="M70.3125 33.75H78.125C78.9875 33.75 79.6875 33.1214 79.6875 32.3438V26.7188C79.6875 26.3447 79.5234 25.9875 79.2297 25.7245L74.5422 21.5058C74.25 21.2414 73.8516 21.0938 73.4375 21.0938H70.3125C69.45 21.0938 68.75 21.7223 68.75 22.5V32.3438C68.75 33.1214 69.45 33.75 70.3125 33.75ZM71.875 23.9062H72.7906L76.5625 27.3009V30.9375H71.875V23.9062Z" fill="black"/>
<path d="M17.1875 35.1562C20.6344 35.1562 23.4375 32.6334 23.4375 29.5312V28.1249C23.4375 27.907 23.3813 27.6904 23.2734 27.4963L18.5859 19.0588C18.0563 18.1054 16.3203 18.1054 15.7906 19.0588L11.1031 27.4963C10.9937 27.6904 10.9375 27.907 10.9375 28.1249V29.5312C10.9375 32.6334 13.7406 35.1562 17.1875 35.1562ZM14.0625 28.4568L17.1875 22.8318L20.3125 28.4568V29.5312C20.3125 31.0823 18.9109 32.3437 17.1875 32.3437C15.4641 32.3437 14.0625 31.0823 14.0625 29.5312V28.4568Z" fill="black"/>
</svg>
