<svg  viewBox="0 0 100 100" width="100"  height="100" fill="none" xmlns="http://www.w3.org/2000/svg">
<path d="M93.75 43.75H93.5H86.9688C86.0469 38.1875 83.8438 32.8906 80.5469 28.2812L85.1562 23.6719C85.7188 23.1094 85.7656 22.2187 85.2656 21.5937C83.2344 19.0625 80.9219 16.75 78.3906 14.7344C77.7656 14.2344 76.875 14.2812 76.3125 14.8437L71.7031 19.4531C67.0938 16.1719 61.7969 13.9687 56.2344 13.0312V6.5C56.2344 5.70312 55.6406 5.03125 54.8437 4.95312C51.7812 4.60937 48.1875 4.60937 45.125 4.95312C44.3438 5.03125 43.75 5.70312 43.75 6.5V13.0312C38.1875 13.9531 32.8906 16.1562 28.2812 19.4531L23.6719 14.8437C23.1094 14.2812 22.2188 14.2344 21.5938 14.7344C19.0625 16.7656 16.75 19.0781 14.7344 21.5937C14.2344 22.2187 14.2812 23.1094 14.8438 23.6719L19.4531 28.2812C16.1719 32.8906 13.9688 38.1875 13.0312 43.75H6.5H6.25C5.39062 43.75 4.6875 44.4531 4.6875 45.3125V50V54.6875C4.6875 55.5469 5.39062 56.25 6.25 56.25H6.5H13.0312C13.9531 61.8125 16.1562 67.1094 19.4531 71.7187L14.8438 76.3281C14.2812 76.8906 14.2344 77.7812 14.7344 78.4062C16.7656 80.9375 19.0781 83.25 21.5938 85.2656C22.2188 85.7656 23.1094 85.7187 23.6719 85.1562L28.2812 80.5469C32.8906 83.8281 38.1875 86.0312 43.75 86.9687V93.5C43.75 94.2969 44.3438 94.9687 45.1406 95.0469C46.6719 95.2187 48.3125 95.3125 50 95.3125C51.6875 95.3125 53.3281 95.2187 54.8594 95.0469C55.6406 94.9531 56.25 94.2969 56.25 93.5V86.9687C60.4062 86.2812 64.3906 84.875 68.1406 82.7969C68.8906 82.375 69.1719 81.4219 68.75 80.6719C68.3281 79.9219 67.375 79.6406 66.625 80.0625C62.8281 82.1719 58.75 83.5156 54.5 84.0625C53.7031 84.1719 53.125 84.8437 53.125 85.625V92.0781C51.1094 92.2187 48.8906 92.2187 46.875 92.0781V85.625C46.875 84.8437 46.2969 84.1719 45.5156 84.0781C39.5625 83.3125 33.875 80.9531 29.0781 77.2656C28.4531 76.7812 27.5781 76.8437 27.0156 77.4062L22.4531 81.9687C20.875 80.6094 19.3906 79.1406 18.0312 77.5469L22.5938 72.9844C23.1562 72.4219 23.2031 71.5469 22.7344 70.9219C19.0469 66.125 16.6875 60.4531 15.9219 54.4844C15.8281 53.7031 15.1562 53.125 14.375 53.125H7.9375C7.92188 53.0156 7.92188 52.9062 7.90625 52.7969C7.85938 51.8906 7.8125 50.9531 7.8125 50C7.8125 49.0469 7.85938 48.1094 7.90625 47.2031C7.90625 47.0937 7.92188 46.9844 7.9375 46.875H14.375C15.1562 46.875 15.8281 46.2969 15.9219 45.5156C16.6875 39.5625 19.0469 33.875 22.7344 29.0781C23.2188 28.4531 23.1562 27.5781 22.5938 27.0156L18.0312 22.4531C19.3906 20.875 20.8594 19.3906 22.4531 18.0312L27.0156 22.5937C27.5781 23.1562 28.4531 23.2031 29.0781 22.7344C33.875 19.0469 39.5469 16.6875 45.5156 15.9219C46.2969 15.8281 46.875 15.1562 46.875 14.375V7.92187C48.8906 7.78125 51.1094 7.78125 53.125 7.92187V14.375C53.125 15.1562 53.7031 15.8281 54.4844 15.9219C60.4375 16.6875 66.125 19.0469 70.9219 22.7344C71.5469 23.2187 72.4219 23.1562 72.9844 22.5937L77.5469 18.0312C79.125 19.3906 80.6094 20.8594 81.9688 22.4531L77.4062 27.0156C76.8438 27.5781 76.7969 28.4531 77.2812 29.0781C80.9688 33.8594 83.3281 39.5469 84.0938 45.5156C84.1719 46.2969 84.8438 46.875 85.625 46.875H92.0625C92.0781 46.9844 92.0781 47.0937 92.0938 47.2031C92.1406 48.1094 92.1875 49.0469 92.1875 50C92.1875 50.9531 92.1406 51.8906 92.0938 52.7969C92.0938 52.9062 92.0781 53.0156 92.0625 53.125H85.625C84.8438 53.125 84.1719 53.7031 84.0781 54.4844C83.5312 58.7344 82.1875 62.8125 80.0781 66.6094C79.6562 67.3594 79.9375 68.3125 80.6875 68.7344C81.4375 69.1562 82.3906 68.875 82.8125 68.125C84.8906 64.3906 86.2812 60.3906 86.9844 56.2344H93.5156H93.75C94.6094 56.2344 95.3125 55.5312 95.3125 54.6719V49.9844V45.2969C95.3125 44.4531 94.6094 43.75 93.75 43.75Z" fill="black"/>
<path d="M64.4374 55.969C65.9218 52.3908 66.0312 48.4221 64.7031 44.6721C63.1718 40.3283 59.6718 36.8127 55.3124 35.2815C51.1874 33.8283 46.8124 34.1096 42.9843 36.0315C42.5312 36.2502 42.2187 36.6877 42.1406 37.1721C42.0624 37.6565 42.2187 38.1721 42.5781 38.5315L47.7968 43.7502H45.3124C44.4531 43.7502 43.7499 44.4533 43.7499 45.3127V47.7971L38.5468 42.594C38.1874 42.2346 37.6874 42.0783 37.1874 42.1565C36.6874 42.2346 36.2656 42.5471 36.0468 43.0002C34.1093 46.8283 33.8437 51.219 35.2968 55.3283C36.8281 59.6721 40.3281 63.1877 44.6874 64.7189C48.4374 66.0314 52.4062 65.9377 55.9843 64.4533L80.1562 88.6252C81.3281 89.7971 82.8593 90.3752 84.3906 90.3752C85.9218 90.3752 87.4531 89.7971 88.6249 88.6252C90.9531 86.2971 90.9531 82.5002 88.6249 80.1721L64.4374 55.969ZM46.8749 46.8752H50.9218L53.1249 49.0783V53.1252H49.0781L46.8749 50.9221V46.8752ZM86.3906 86.3908C85.2812 87.5002 83.4687 87.5002 82.3437 86.3908L57.4218 61.4533C57.1249 61.1565 56.7187 61.0002 56.3124 61.0002C56.0781 61.0002 55.8281 61.0627 55.6093 61.1721C52.5468 62.719 49.0312 62.9221 45.7187 61.7658C42.2499 60.5471 39.4531 57.7502 38.2343 54.2815C37.3281 51.7033 37.2499 48.9846 37.9999 46.469L47.3281 55.7971C47.6249 56.0783 48.0156 56.2502 48.4374 56.2502H54.6874C55.5468 56.2502 56.2499 55.5471 56.2499 54.6877V48.4377C56.2499 48.0158 56.0781 47.6252 55.7968 47.3283L46.4687 38.0002C48.9843 37.2502 51.7031 37.3283 54.2812 38.2346C57.7499 39.4533 60.5468 42.2502 61.7656 45.7033C62.9218 49.0158 62.7187 52.5315 61.1718 55.594C60.8749 56.2033 60.9843 56.9221 61.4687 57.4065L86.4062 82.344C87.5156 83.469 87.5156 85.2815 86.3906 86.3908Z" fill="black"/>
<path d="M73.8281 61.8125C74.625 62.1563 75.5313 61.7812 75.875 60.9844C76.7031 59.0312 77.3125 57 77.6719 54.9688C77.9688 53.375 78.125 51.7031 78.125 50C78.125 48.2969 77.9688 46.625 77.6875 45.0469C76.9844 41.0312 75.4375 37.2969 73.0938 33.9375C71.1875 31.1875 68.8281 28.8281 66.0781 26.9219C62.7188 24.5625 58.9844 23.0156 54.9844 22.3281C51.7812 21.7344 48.2188 21.7344 45.0625 22.3281C41.0469 23.0312 37.3125 24.5781 33.9531 26.9219C31.2031 28.8281 28.8437 31.1875 26.9375 33.9375C24.5781 37.2969 23.0313 41.0312 22.3438 45.0312C22.0313 46.625 21.875 48.2969 21.875 50C21.875 51.7031 22.0312 53.375 22.3281 54.9531C23.0312 58.9688 24.5781 62.7031 26.9219 66.0625C28.8281 68.8125 31.1875 71.1719 33.9375 73.0781C37.2969 75.4375 41.0312 76.9844 45.0312 77.6719C46.625 77.9687 48.2969 78.125 50 78.125C51.7031 78.125 53.375 77.9687 54.9531 77.6719C57 77.3125 59.0312 76.7031 60.9844 75.875C61.7812 75.5312 62.1563 74.625 61.8125 73.8281C61.4688 73.0312 60.5625 72.6562 59.7656 73C58.0312 73.7344 56.2188 74.2812 54.3906 74.5938C51.5625 75.125 48.4219 75.125 45.5625 74.5938C42 73.9688 38.6875 72.5938 35.7031 70.5C33.2656 68.8125 31.1719 66.7188 29.4688 64.2656C27.375 61.2813 26.0156 57.9688 25.375 54.3906C25.125 52.9844 25 51.5156 25 50C25 48.4844 25.125 47.0156 25.3906 45.5781C26.0156 42.0156 27.3906 38.7031 29.4844 35.7188C31.1719 33.2813 33.2656 31.1875 35.7188 29.4844C38.7031 27.3906 42.0156 26.0312 45.5938 25.3906C48.4219 24.8594 51.5625 24.8594 54.4219 25.3906C57.9844 26.0156 61.2969 27.3906 64.2812 29.4844C66.7188 31.1719 68.8125 33.2656 70.5156 35.7188C72.6094 38.7031 73.9844 42.0156 74.6094 45.5938C74.875 47.0156 75 48.5 75 50C75 51.5 74.875 52.9844 74.6094 54.4219C74.2969 56.2344 73.75 58.0312 73.0156 59.7812C72.6719 60.5625 73.0469 61.4844 73.8281 61.8125Z" fill="black"/>
<path d="M48.4375 28.125V31.25C48.4375 32.1094 49.1406 32.8125 50 32.8125C50.8594 32.8125 51.5625 32.1094 51.5625 31.25V28.125C51.5625 27.2656 50.8594 26.5625 50 26.5625C49.1406 26.5625 48.4375 27.2656 48.4375 28.125Z" fill="black"/>
<path d="M31.25 48.4375H28.125C27.2656 48.4375 26.5625 49.1406 26.5625 50C26.5625 50.8594 27.2656 51.5625 28.125 51.5625H31.25C32.1094 51.5625 32.8125 50.8594 32.8125 50C32.8125 49.1406 32.1094 48.4375 31.25 48.4375Z" fill="black"/>
<path d="M68.75 51.5625H71.875C72.7344 51.5625 73.4375 50.8594 73.4375 50C73.4375 49.1406 72.7344 48.4375 71.875 48.4375H68.75C67.8906 48.4375 67.1875 49.1406 67.1875 50C67.1875 50.8594 67.8906 51.5625 68.75 51.5625Z" fill="black"/>
<path d="M51.5625 71.875V68.75C51.5625 67.8906 50.8594 67.1875 50 67.1875C49.1406 67.1875 48.4375 67.8906 48.4375 68.75V71.875C48.4375 72.7344 49.1406 73.4375 50 73.4375C50.8594 73.4375 51.5625 72.7344 51.5625 71.875Z" fill="black"/>
<path d="M34.375 67.1875C34.7813 67.1875 35.1719 67.0312 35.4844 66.7344L37.0469 65.1719C37.6562 64.5625 37.6562 63.5781 37.0469 62.9688C36.4375 62.3594 35.4531 62.3594 34.8438 62.9688L33.2813 64.5313C32.6719 65.1406 32.6719 66.125 33.2813 66.7344C33.5781 67.0312 33.9688 67.1875 34.375 67.1875Z" fill="black"/>
<path d="M64.5156 33.2657L62.9531 34.8282C62.3438 35.4376 62.3438 36.422 62.9531 37.0313C63.2656 37.3438 63.6562 37.5001 64.0625 37.5001C64.4687 37.5001 64.8594 37.3438 65.1719 37.0469L66.7344 35.4844C67.3437 34.8751 67.3437 33.8907 66.7344 33.2813C66.125 32.6719 65.125 32.6563 64.5156 33.2657Z" fill="black"/>
<path d="M35.9375 37.5C36.3438 37.5 36.7344 37.3438 37.0469 37.0469C37.6562 36.4375 37.6562 35.4531 37.0469 34.8438L35.4844 33.2813C34.875 32.6719 33.8906 32.6719 33.2813 33.2813C32.6719 33.8906 32.6719 34.875 33.2813 35.4844L34.8438 37.0469C35.1406 37.3438 35.5313 37.5 35.9375 37.5Z" fill="black"/>
</svg>
