<svg  viewBox="0 0 120 125" fill="none" xmlns="http://www.w3.org/2000/svg">
<path d="M30 76.1719H24.375V80.0781H30V76.1719Z" fill="black"/>
<path d="M114.375 54.6874H103.575C102.581 54.6834 101.629 54.2714 100.926 53.5409L99.1444 51.6854C97.3811 49.8607 94.998 48.8339 92.5125 48.828H81.5625C80.3986 48.8307 79.2512 49.1143 78.2102 49.6565C77.1692 50.1987 76.2629 50.9847 75.5625 51.953L72.1875 56.6405H62.2687C60.1093 56.6356 57.9827 57.1914 56.0812 58.2577C54.1697 59.333 52.5397 60.8793 51.3338 62.7616C50.8781 63.4923 50.6322 64.3434 50.625 65.2147V68.3593C50.625 69.3953 51.0201 70.3888 51.7234 71.1214C52.4266 71.854 53.3804 72.2655 54.375 72.2655H58.125C58.1328 73.641 58.4926 74.9894 59.1675 76.1718H44.6381L43.6313 48.9608L55.1081 35.2889L82.5 27.1483V30.0487L82.125 30.244C81.5944 30.5208 81.1345 30.9249 80.783 31.4229C80.4315 31.921 80.1985 32.4988 80.1031 33.1089C80.0077 33.7191 80.0527 34.3441 80.2344 34.9325C80.4161 35.521 80.7292 36.0562 81.1481 36.494L82.5094 37.912V39.0624C82.5094 39.5804 82.3118 40.0772 81.9602 40.4434C81.6086 40.8097 81.1317 41.0155 80.6344 41.0155C80.1371 41.0155 79.6602 40.8097 79.3085 40.4434C78.9569 40.0772 78.7594 39.5804 78.7594 39.0624V37.1093H75V39.0624C75 40.6164 75.5926 42.1067 76.6475 43.2056C77.7024 44.3044 79.1332 44.9218 80.625 44.9218C82.1168 44.9218 83.5476 44.3044 84.6025 43.2056C85.6574 42.1067 86.25 40.6164 86.25 39.0624V37.1093C86.2499 36.5913 86.0523 36.0946 85.7006 35.7284L83.79 33.7382L85.2131 32.9979C85.5248 32.8357 85.7869 32.5862 85.9701 32.2774C86.1532 31.9686 86.2502 31.6128 86.25 31.2499V25.9257C86.7773 25.6492 87.234 25.2461 87.5822 24.7496C87.9304 24.253 88.1603 23.6773 88.2528 23.07C88.3453 22.4627 88.2978 21.8411 88.1142 21.2567C87.9306 20.6723 87.6162 20.1417 87.1969 19.7089L85.3763 17.8124C84.6704 17.0775 83.7896 16.5514 82.8242 16.2882C81.8588 16.0249 80.8435 16.0339 79.8825 16.3143L37.8581 28.5702C36.6779 28.9182 35.6385 29.6571 34.8973 30.6751C34.1561 31.6932 33.7533 32.935 33.75 34.2128V52.7343H15.75C14.5954 52.7396 13.4699 53.1128 12.5248 53.8038C11.5796 54.4947 10.86 55.4702 10.4625 56.5995L3.86438 75.5038C3.78913 75.7178 3.75042 75.9439 3.75 76.1718V91.7968C3.75 92.8328 4.14509 93.8263 4.84835 94.5589C5.55161 95.2915 6.50544 95.703 7.5 95.703H18.9375C19.3678 97.9106 20.5176 99.8953 22.192 101.321C23.8664 102.747 25.9625 103.525 28.125 103.525C30.2875 103.525 32.3836 102.747 34.058 101.321C35.7324 99.8953 36.8822 97.9106 37.3125 95.703H82.6875C83.1501 98.0763 84.4429 100.186 86.3147 101.622C88.1866 103.059 90.504 103.719 92.8172 103.476C95.1303 103.232 97.2741 102.102 98.8324 100.305C100.391 98.5079 101.252 96.1717 101.25 93.7499C101.243 91.6298 100.567 89.5709 99.3262 87.8905H114.375C114.872 87.8905 115.349 87.6847 115.701 87.3184C116.052 86.9522 116.25 86.4554 116.25 85.9374V78.1249C116.25 77.6069 116.052 77.1101 115.701 76.7438C115.349 76.3775 114.872 76.1718 114.375 76.1718H107.708C108.382 74.9894 108.742 73.641 108.75 72.2655C110.739 72.2655 112.647 71.4424 114.053 69.9773C115.46 68.5121 116.25 66.525 116.25 64.453V56.6405C116.25 56.1225 116.052 55.6257 115.701 55.2594C115.349 54.8932 114.872 54.6874 114.375 54.6874ZM13.9838 57.9393C14.116 57.5611 14.356 57.234 14.6717 57.0019C14.9874 56.7698 15.3636 56.6437 15.75 56.6405H26.25V68.787L8.59125 73.3866L13.9838 57.9393ZM11.25 91.7968H7.5V87.8905H11.25V91.7968ZM28.125 99.6093C27.0125 99.6093 25.9249 99.2656 24.9999 98.6218C24.0749 97.9779 23.3539 97.0628 22.9282 95.9922C22.5024 94.9215 22.391 93.7434 22.6081 92.6068C22.8251 91.4702 23.3609 90.4261 24.1475 89.6067C24.9342 88.7872 25.9365 88.2292 27.0276 88.0031C28.1188 87.777 29.2498 87.893 30.2776 88.3365C31.3054 88.78 32.1839 89.531 32.802 90.4946C33.4201 91.4582 33.75 92.591 33.75 93.7499C33.75 95.3039 33.1574 96.7942 32.1025 97.8931C31.0476 98.9919 29.6168 99.6093 28.125 99.6093ZM33.75 85.9374V85.9882C32.1368 84.6956 30.1603 83.9914 28.125 83.9843C25.9646 83.9871 23.8712 84.7657 22.1977 86.1888C20.5241 87.6119 19.3727 89.5925 18.9375 91.7968H15V85.9374C15 85.4194 14.8025 84.9226 14.4508 84.5563C14.0992 84.19 13.6223 83.9843 13.125 83.9843H7.5V77.6952L28.5787 72.2069C28.9846 72.1015 29.3449 71.8577 29.6024 71.5145C29.8599 71.1712 29.9999 70.748 30 70.3124V56.6405H33.75V85.9374ZM90 52.7343H92.5125C94.0042 52.7368 95.4346 53.3523 96.4931 54.4471L98.2744 56.3026C98.5484 56.5753 98.8425 56.8254 99.1537 57.0507L96.9375 58.5936H90V52.7343ZM78.5625 54.2968C78.9128 53.8127 79.366 53.4198 79.8864 53.1487C80.4069 52.8776 80.9806 52.7358 81.5625 52.7343H86.25V58.5936H77.3175L75.9713 57.8925L78.5625 54.2968ZM46.0988 80.078L49.8488 83.9843H44.9287L44.7844 80.078H46.0988ZM43.4194 43.2792L43.2544 38.8241L48.465 37.2733L43.4194 43.2792ZM37.5 34.2128C37.4999 33.7866 37.6337 33.3722 37.8808 33.0326C38.1279 32.693 38.4749 32.447 38.8687 32.3319L80.8969 20.0741C81.0604 20.0259 81.2295 20.0016 81.3994 20.0018C81.8966 20.0019 82.3735 20.2078 82.725 20.5741L84.5475 22.4706L37.5 36.4725V34.2128ZM37.5 40.537L39.5438 39.9276L41.1769 83.9843H37.5V40.537ZM54.375 91.7968H37.5V87.8905H54.375V91.7968ZM51.4012 80.078H55.4738L59.2238 83.9843H55.1512L51.4012 80.078ZM82.6875 91.7968H58.125V87.8905H84.4238C83.5708 89.0403 82.9773 90.3754 82.6875 91.7968ZM64.8469 80.078L68.5969 83.9843H64.5263L60.7763 80.078H64.8469ZM61.875 72.2655C61.875 71.4929 62.0949 70.7377 62.507 70.0953C62.919 69.4529 63.5047 68.9523 64.1899 68.6566C64.8752 68.3609 65.6292 68.2836 66.3566 68.4343C67.084 68.585 67.7522 68.9571 68.2767 69.5034C68.8011 70.0497 69.1582 70.7457 69.3029 71.5034C69.4476 72.2612 69.3734 73.0466 69.0895 73.7604C68.8057 74.4741 68.3251 75.0842 67.7084 75.5134C67.0917 75.9427 66.3667 76.1718 65.625 76.1718C64.6304 76.1718 63.6766 75.7602 62.9733 75.0276C62.2701 74.2951 61.875 73.3015 61.875 72.2655ZM72.0825 76.1718C72.7574 74.9894 73.1172 73.641 73.125 72.2655H93.75C93.7578 73.641 94.1176 74.9894 94.7925 76.1718H72.0825ZM96.7237 83.9843H92.6513L88.9013 80.078H92.9737L96.7237 83.9843ZM74.2237 80.078L77.9737 83.9843H73.9013L70.1513 80.078H74.2237ZM83.2763 83.9843L79.5263 80.078H83.5987L87.3487 83.9843H83.2763ZM91.875 99.6093C90.7625 99.6093 89.6749 99.2656 88.7499 98.6218C87.8249 97.9779 87.1039 97.0628 86.6782 95.9922C86.2524 94.9215 86.141 93.7434 86.3581 92.6068C86.5751 91.4702 87.1109 90.4261 87.8975 89.6067C88.6842 88.7872 89.6865 88.2292 90.7776 88.0031C91.8688 87.777 92.9998 87.893 94.0276 88.3365C95.0554 88.78 95.9339 89.531 96.552 90.4946C97.1701 91.4582 97.5 92.591 97.5 93.7499C97.5 95.3039 96.9074 96.7942 95.8525 97.8931C94.7976 98.9919 93.3668 99.6093 91.875 99.6093ZM102.026 83.9843L98.2763 80.078H102.349L106.099 83.9843H102.026ZM97.5 72.2655C97.5 71.4929 97.7199 70.7377 98.132 70.0953C98.544 69.4529 99.1297 68.9523 99.8149 68.6566C100.5 68.3609 101.254 68.2836 101.982 68.4343C102.709 68.585 103.377 68.9571 103.902 69.5034C104.426 70.0497 104.783 70.7457 104.928 71.5034C105.073 72.2612 104.998 73.0466 104.715 73.7604C104.431 74.4741 103.95 75.0842 103.333 75.5134C102.717 75.9427 101.992 76.1718 101.25 76.1718C100.255 76.1718 99.3016 75.7602 98.5983 75.0276C97.8951 74.2951 97.5 73.3015 97.5 72.2655ZM112.5 80.078V83.9843H111.401L107.651 80.078H112.5ZM112.5 64.453C112.5 65.489 112.105 66.4826 111.402 67.2151C110.698 67.9477 109.745 68.3593 108.75 68.3593H107.708C107.058 67.1726 106.118 66.1861 104.984 65.5C103.85 64.8139 102.562 64.4524 101.25 64.4524C99.9385 64.4524 98.6503 64.8139 97.5162 65.5C96.3821 66.1861 95.4424 67.1726 94.7925 68.3593H72.0825C71.4326 67.1726 70.4929 66.1861 69.3588 65.5C68.2247 64.8139 66.9365 64.4524 65.625 64.4524C64.3135 64.4524 63.0253 64.8139 61.8912 65.5C60.7571 66.1861 59.8174 67.1726 59.1675 68.3593H54.375V65.2147C54.3797 65.1035 54.4113 64.9953 54.4669 64.9003C55.3273 63.566 56.4853 62.469 57.8419 61.703C59.202 60.9395 60.7237 60.542 62.2687 60.5468H72.1875C72.3214 60.5383 72.4547 60.522 72.5869 60.4979L76.0369 62.2948C76.2972 62.43 76.5841 62.5002 76.875 62.4999H97.5C97.8703 62.4993 98.2322 62.3852 98.5406 62.1718L103.688 58.5936H112.5V64.453Z" fill="black"/>
</svg>
